HIERARCHY
ROOT reference
{
  OFFSET 0 0 0
  CHANNELS 6 Xposition Yposition Zposition Zrotation Xrotation Yrotation
  JOINT Hips
  {
    OFFSET 368.823 89.7904 194.012
    CHANNELS 3 Zrotation Xrotation Yrotation
    JOINT RightUpLeg
    {
      OFFSET -9.24587 -1.53924 -0.0496539
      CHANNELS 3 Zrotation Xrotation Yrotation
      JOINT RightLeg
      {
        OFFSET 0.0288962 -41.8853 0.065208
        CHANNELS 3 Zrotation Xrotation Yrotation
        JOINT RightFoot
        {
          OFFSET -0.153961 -42.496 -0.469978
          CHANNELS 3 Zrotation Xrotation Yrotation
          End Site
          {
            OFFSET 0 -7.69 17.5
          }
        }
      }
    }
    JOINT LeftUpLeg
    {
      OFFSET 9.30368 -1.65799 0.0114032
      CHANNELS 3 Zrotation Xrotation Yrotation
      JOINT LeftLeg
      {
        OFFSET 0.0812002 -41.8405 -0.136291
        CHANNELS 3 Zrotation Xrotation Yrotation
        JOINT LeftFoot
        {
          OFFSET 0.408244 -41.1613 0.400562
          CHANNELS 3 Zrotation Xrotation Yrotation
          End Site
          {
            OFFSET 0 -7.69 17.5
          }
        }
      }
    }
    JOINT Spine
    {
      OFFSET 0.0091145 14.2923 0.0603898
      CHANNELS 3 Zrotation Xrotation Yrotation
      JOINT Spine1
      {
        OFFSET 0.0313032 9.72692 0.0269052
        CHANNELS 3 Zrotation Xrotation Yrotation
        JOINT Spine2
        {
          OFFSET 0.0416827 10.1254 -0.000588186
          CHANNELS 3 Zrotation Xrotation Yrotation
          JOINT Spine3
          {
            OFFSET 0.0353017 9.71596 0.00525809
            CHANNELS 3 Zrotation Xrotation Yrotation
            JOINT Neck
            {
              OFFSET 0.0870676 10.3793 0.0454457
              CHANNELS 3 Zrotation Xrotation Yrotation
              JOINT Head
              {
                OFFSET 0.0878806 9.48152 0.0233162
                CHANNELS 3 Zrotation Xrotation Yrotation
                End Site
                {
                  OFFSET 0 15.95 0
                }
              }
            }
            JOINT RightShoulder
            {
              OFFSET -3.16008 6.92912 0.0289115
              CHANNELS 3 Zrotation Xrotation Yrotation
              JOINT RightArm
              {
                OFFSET -12.7589 0.0216905 0.0632467
                CHANNELS 3 Zrotation Xrotation Yrotation
                JOINT RightForeArm
                {
                  OFFSET -26.506 -0.0577999 0.0567862
                  CHANNELS 3 Zrotation Xrotation Yrotation
                  JOINT RightHand
                  {
                    OFFSET -25.9836 -0.0526551 -0.00138994
                    CHANNELS 3 Zrotation Xrotation Yrotation
                    JOINT RightHandThumb1
                    {
                      OFFSET -2.48905 0.190105 3.12053
                      CHANNELS 3 Zrotation Xrotation Yrotation
                      JOINT RightHandThumb2
                      {
                        OFFSET -3.68274 0 0
                        CHANNELS 3 Zrotation Xrotation Yrotation
                        JOINT RightHandThumb3
                        {
                          OFFSET -2.55832 0 0
                          CHANNELS 3 Zrotation Xrotation Yrotation
                          End Site
                          {
                            OFFSET -2.194 0 0
                          }
                        }
                      }
                    }
                    JOINT RightInHandIndex
                    {
                      OFFSET -3.22368 0.508421 1.97842
                      CHANNELS 3 Zrotation Xrotation Yrotation
                      JOINT RightHandIndex1
                      {
                        OFFSET -5.21684 -0.091368 0.999158
                        CHANNELS 3 Zrotation Xrotation Yrotation
                        JOINT RightHandIndex2
                        {
                          OFFSET -3.61937 0 0
                          CHANNELS 3 Zrotation Xrotation Yrotation
                          JOINT RightHandIndex3
                          {
                            OFFSET -2.0521 0 0
                            CHANNELS 3 Zrotation Xrotation Yrotation
                            End Site
                            {
                              OFFSET -1.805 0 0
                            }
                          }
                        }
                      }
                    }
                    JOINT RightInHandMiddle
                    {
                      OFFSET -3.38211 0.517263 0.756737
                      CHANNELS 3 Zrotation Xrotation Yrotation
                      JOINT RightHandMiddle1
                      {
                        OFFSET -5.17411 -0.084 0.313895
                        CHANNELS 3 Zrotation Xrotation Yrotation
                        JOINT RightHandMiddle2
                        {
                          OFFSET -3.94947 0 0
                          CHANNELS 3 Zrotation Xrotation Yrotation
                          JOINT RightHandMiddle3
                          {
                            OFFSET -2.47579 0 0
                            CHANNELS 3 Zrotation Xrotation Yrotation
                            End Site
                            {
                              OFFSET -1.975 0 0
                            }
                          }
                        }
                      }
                    }
                    JOINT RightInHandRing
                    {
                      OFFSET -3.36516 0.537895 -0.128947
                      CHANNELS 3 Zrotation Xrotation Yrotation
                      JOINT RightHandRing1
                      {
                        OFFSET -4.63474 -0.022105 -0.478947
                        CHANNELS 3 Zrotation Xrotation Yrotation
                        JOINT RightHandRing2
                        {
                          OFFSET -3.44238 0 0
                          CHANNELS 3 Zrotation Xrotation Yrotation
                          JOINT RightHandRing3
                          {
                            OFFSET -2.3881 0 0
                            CHANNELS 3 Zrotation Xrotation Yrotation
                            End Site
                            {
                              OFFSET -1.857 0 0
                            }
                          }
                        }
                      }
                    }
                    JOINT RightInHandPinky
                    {
                      OFFSET -3.16105 0.469368 -1.20179
                      CHANNELS 3 Zrotation Xrotation Yrotation
                      JOINT RightHandPinky1
                      {
                        OFFSET -4.14105 -0.022105 -1.09053
                        CHANNELS 3 Zrotation Xrotation Yrotation
                        JOINT RightHandPinky2
                        {
                          OFFSET -2.75653 0 0
                          CHANNELS 3 Zrotation Xrotation Yrotation
                          JOINT RightHandPinky3
                          {
                            OFFSET -1.74189 0 0
                            CHANNELS 3 Zrotation Xrotation Yrotation
                            End Site
                            {
                              OFFSET -1.645 0 0
                            }
                          }
                        }
                      }
                    }
                  }
                }
              }
            }
            JOINT LeftShoulder
            {
              OFFSET 3.24363 6.91883 -0.0263005
              CHANNELS 3 Zrotation Xrotation Yrotation
              JOINT LeftArm
              {
                OFFSET 12.8387 -0.0254922 -0.065819
                CHANNELS 3 Zrotation Xrotation Yrotation
                JOINT LeftForeArm
                {
                  OFFSET 26.503 -0.0679028 -0.0690065
                  CHANNELS 3 Zrotation Xrotation Yrotation
                  JOINT LeftHand
                  {
                    OFFSET 25.9897 -0.0384179 -0.0536179
                    CHANNELS 3 Zrotation Xrotation Yrotation
                    JOINT LeftHandThumb1
                    {
                      OFFSET 2.48905 0.190105 3.12053
                      CHANNELS 3 Zrotation Xrotation Yrotation
                      JOINT LeftHandThumb2
                      {
                        OFFSET 3.68274 0 0
                        CHANNELS 3 Zrotation Xrotation Yrotation
                        JOINT LeftHandThumb3
                        {
                          OFFSET 2.55832 0 0
                          CHANNELS 3 Zrotation Xrotation Yrotation
                          End Site
                          {
                            OFFSET 2.194 0 0
                          }
                        }
                      }
                    }
                    JOINT LeftInHandIndex
                    {
                      OFFSET 3.22368 0.508421 1.97842
                      CHANNELS 3 Zrotation Xrotation Yrotation
                      JOINT LeftHandIndex1
                      {
                        OFFSET 5.21684 -0.091368 0.999158
                        CHANNELS 3 Zrotation Xrotation Yrotation
                        JOINT LeftHandIndex2
                        {
                          OFFSET 3.61937 0 0
                          CHANNELS 3 Zrotation Xrotation Yrotation
                          JOINT LeftHandIndex3
                          {
                            OFFSET 2.0521 0 0
                            CHANNELS 3 Zrotation Xrotation Yrotation
                            End Site
                            {
                              OFFSET 1.805 0 0
                            }
                          }
                        }
                      }
                    }
                    JOINT LeftInHandMiddle
                    {
                      OFFSET 3.38211 0.517263 0.756737
                      CHANNELS 3 Zrotation Xrotation Yrotation
                      JOINT LeftHandMiddle1
                      {
                        OFFSET 5.17411 -0.084 0.313895
                        CHANNELS 3 Zrotation Xrotation Yrotation
                        JOINT LeftHandMiddle2
                        {
                          OFFSET 3.94947 0 0
                          CHANNELS 3 Zrotation Xrotation Yrotation
                          JOINT LeftHandMiddle3
                          {
                            OFFSET 2.47579 0 0
                            CHANNELS 3 Zrotation Xrotation Yrotation
                            End Site
                            {
                              OFFSET 1.975 0 0
                            }
                          }
                        }
                      }
                    }
                    JOINT LeftInHandRing
                    {
                      OFFSET 3.36516 0.537895 -0.128947
                      CHANNELS 3 Zrotation Xrotation Yrotation
                      JOINT LeftHandRing1
                      {
                        OFFSET 4.63474 -0.022105 -0.478947
                        CHANNELS 3 Zrotation Xrotation Yrotation
                        JOINT LeftHandRing2
                        {
                          OFFSET 3.44238 0 0
                          CHANNELS 3 Zrotation Xrotation Yrotation
                          JOINT LeftHandRing3
                          {
                            OFFSET 2.3881 0 0
                            CHANNELS 3 Zrotation Xrotation Yrotation
                            End Site
                            {
                              OFFSET 1.857 0 0
                            }
                          }
                        }
                      }
                    }
                    JOINT LeftInHandPinky
                    {
                      OFFSET 3.16105 0.469368 -1.20179
                      CHANNELS 3 Zrotation Xrotation Yrotation
                      JOINT LeftHandPinky1
                      {
                        OFFSET 4.14105 -0.022105 -1.09053
                        CHANNELS 3 Zrotation Xrotation Yrotation
                        JOINT LeftHandPinky2
                        {
                          OFFSET 2.75653 0 0
                          CHANNELS 3 Zrotation Xrotation Yrotation
                          JOINT LeftHandPinky3
                          {
                            OFFSET 1.74189 0 0
                            CHANNELS 3 Zrotation Xrotation Yrotation
                            End Site
                            {
                              OFFSET 1.645 0 0
                            }
                          }
                        }
                      }
                    }
                  }
                }
              }
            }
          }
        }
      }
    }
  }
}
MOTION
Frames: 2
Frame Time: 0.00833333
1.050000000000000000e+03 0.000000000000000000e+00 0.000000000000000000e+00 0.000000000000000000e+00 0.000000000000000000e+00 0.000000000000000000e+00 2.150781070578372223e+01 7.919614532996583023e+00 -9.042727096461580061e+01 9.567940992198634476e+00 -3.907363519430430188e+01 1.053169689242188412e+01 -5.177554651665788654e+00 2.233358609796563954e+01 -7.823971767478333561e+00 9.605319513325884628e+00 2.545476377294918713e+00 3.585654316189558699e+01 1.025284433437292186e+01 -3.341161606123216643e+01 -7.237953348261729758e-01 -5.077403663284746571e+00 4.151869426169968591e+01 1.284767238529331301e+01 -2.521510898475058937e+00 -1.831916841311851485e+01 -8.412698979508260066e+00 -1.669816767752490660e+00 3.359626999224421429e+00 -1.330304790757761424e+00 -3.314912127772620676e-01 7.400450483053201411e-01 -2.208773826370569182e-01 -5.559453237244671442e-01 1.132618940457179590e+00 -4.615171948206739927e-01 -3.302714217973408140e-01 -1.753235046524581064e-01 9.829972720780049134e-01 -2.459450560685476628e-01 -2.434121478567015551e+00 1.183675046656968988e+01 -5.050362207582002050e+00 3.222664297480708928e+00 1.086452321963629686e+01 2.356439070235286870e+00 -8.140328630176586699e+00 1.091612374686076237e+01 5.215743499525762417e+01 -3.272155910025364278e+01 2.185570693693266264e+01 2.142346140643422814e+01 -8.036667353213797327e+00 8.086113894714161177e+01 3.958321824980070236e+00 -3.227056785473236999e+01 1.078424679006636389e+01 2.818400000000000105e+01 1.072940000000000005e+01 1.915919999999999845e+01 9.806828978974382445e-15 3.488041406701628507e-15 -1.000000000000000000e+01 1.606413025072890682e-14 3.691878425498062160e-15 -1.000000000000000000e+01 1.750983022504171254e-14 -1.272465446964822935e-16 2.562608836000366204e-15 1.998179999999999978e+01 8.718970000000000331e-01 2.396399999999999864e+00 2.400000000000000000e+01 2.124956547835382588e-15 2.781775630585026988e-14 2.000000000000000000e+01 7.120003780258123018e-15 5.049409397956245290e-14 1.750983022504171254e-14 -1.272465446964822935e-16 2.562608836000366204e-15 2.000000000000000000e+01 -4.027184604373685516e-15 1.453894493883618506e-14 2.400000000000000000e+01 8.608035476825381706e-15 3.104413112232472302e-14 2.000000000000000000e+01 -3.293192533108740799e-15 2.525435347721915331e-14 1.750983022504171254e-14 -1.272465446964822935e-16 2.562608836000366204e-15 1.997479999999999833e+01 -1.025649999999999951e+00 -2.819380000000000219e+00 2.400000000000000000e+01 1.141588128875620005e-14 1.528677648737197470e-14 2.000000000000000000e+01 1.531732747113843161e-14 4.513110104100401469e-14 1.750983022504171254e-14 -1.272465446964822935e-16 2.562608836000366204e-15 1.978150000000000119e+01 -3.009479999999999933e+00 -8.305149999999999366e+00 2.400000000000000000e+01 -1.659030789800475498e-15 1.342739127646876712e-14 2.000000000000000000e+01 1.520643018553619549e-14 3.398729905546480006e-14 6.083732158210571228e+00 -1.878188602617939296e+01 -4.187423330309778180e+01 -2.795530025611799729e+01 2.557663891545042034e+01 -9.263771255278778938e+01 1.455698448203236239e+01 -2.395049939623067203e+01 -2.853783364886253082e+01 -3.020738975794090209e+01 -1.162223615657190479e+01 -8.021954764552798878e+00 -2.818400000000000105e+01 1.072940000000000005e+01 -1.915919999999999845e+01 -6.779536820841170563e-15 -1.009550585376424761e-14 1.000000000000000000e+01 8.781887242898279014e-15 -6.425508736908402037e-15 1.000000000000000000e+01 -4.698852984823470754e-15 -5.565881878779279645e-15 -6.081093675169641879e-15 -1.998179999999999978e+01 8.718970000000000331e-01 -2.396399999999999864e+00 -2.400000000000000000e+01 -4.809263813299589491e-15 -1.044663009480044096e-14 -2.000000000000000000e+01 6.789593136712032655e-16 5.334020413027382083e-15 -4.698852984823470754e-15 -5.565881878779279645e-15 -6.081093675169641879e-15 -2.000000000000000000e+01 -1.027880814458781605e-14 -4.871363985296576606e-15 -2.400000000000000000e+01 -2.805072000835933100e-15 -2.324541686802623090e-15 -2.000000000000000000e+01 1.751660201385523062e-15 -1.032489229070292872e-14 -4.698852984823470754e-15 -5.565881878779279645e-15 -6.081093675169641879e-15 -1.997479999999999833e+01 -1.025649999999999951e+00 2.819380000000000219e+00 -2.400000000000000000e+01 1.986354254607032535e-15 -1.051506079120478306e-14 -2.000000000000000000e+01 -2.756804827306982369e-15 6.498268428659622049e-15 -4.698852984823470754e-15 -5.565881878779279645e-15 -6.081093675169641879e-15 -1.978150000000000119e+01 -3.009479999999999933e+00 8.305149999999999366e+00 -2.400000000000000000e+01 -8.360725560630221458e-17 1.182592379930852712e-15 -2.000000000000000000e+01 5.888602910440208589e-15 -8.649042944691559413e-15
1.050000000000000000e+03 0.000000000000000000e+00 0.000000000000000000e+00 0.000000000000000000e+00 0.000000000000000000e+00 0.000000000000000000e+00 2.134830498344702931e+01 7.988816121904934953e+00 -8.963559585337023350e+01 9.349116766561149205e+00 -3.876211109415565659e+01 1.037163800350315590e+01 -5.124930256653064120e+00 2.228178890358254449e+01 -7.909150548250824642e+00 9.578224771112232361e+00 2.663774203421972242e+00 3.573644087837156036e+01 9.922985841772796078e+00 -3.337808448060503963e+01 -1.093933849335103403e+00 -4.853384063206899413e+00 4.146197988096086817e+01 1.261178279754673071e+01 -2.513819223551019721e+00 -1.820934668587407046e+01 -8.728402516867173944e+00 -1.598027253286553817e+00 3.342085917281464535e+00 -1.107577993107931036e+00 -3.153735414238677537e-01 7.316965238289452333e-01 -1.622907555020356440e-01 -5.278332996851551329e-01 1.116832985659732325e+00 -3.777114380333221888e-01 -3.214807275787976426e-01 -1.753735376752496022e-01 9.551393687280802514e-01 -2.257738706364076364e-01 -2.441154458645379499e+00 1.146088800150424092e+01 -4.895109143939544438e+00 3.262541745439610175e+00 1.053535276590963221e+01 2.296235302031012004e+00 -8.245031186634555809e+00 1.105027625821699644e+01 5.207167262992010848e+01 -3.235381900410354206e+01 2.229437967201268833e+01 2.096335493593428723e+01 -7.816136799777297917e+00 8.051878039668831377e+01 4.003506725799150345e+00 -3.219610602587881942e+01 1.093089174199311664e+01 2.818400000000000105e+01 1.072940000000000005e+01 1.915919999999999845e+01 9.827918453060649404e-15 3.499048619038802354e-15 -1.000000000000000000e+01 1.607091526924042999e-14 3.688545386788003330e-15 -1.000000000000000000e+01 1.749809094740491834e-14 -1.264443639698637610e-16 2.579956286861249954e-15 1.998179999999999978e+01 8.718970000000000331e-01 2.396399999999999864e+00 2.400000000000000000e+01 2.142239214257025577e-15 2.782252864774588277e-14 2.000000000000000000e+01 7.106416800577874334e-15 5.051471852781366098e-14 1.749809094740491834e-14 -1.264443639698637610e-16 2.579956286861249954e-15 2.000000000000000000e+01 -4.028999042118942680e-15 1.448761896207114436e-14 2.400000000000000000e+01 8.608530563743687907e-15 3.104122601519232473e-14 2.000000000000000000e+01 -3.305968940716523691e-15 2.528308842271499407e-14 1.749809094740491834e-14 -1.264443639698637610e-16 2.579956286861249954e-15 1.997479999999999833e+01 -1.025649999999999951e+00 -2.819380000000000219e+00 2.400000000000000000e+01 1.143090786673058865e-14 1.530374434536236056e-14 2.000000000000000000e+01 1.532006939838514945e-14 4.514814066472667064e-14 1.749809094740491834e-14 -1.264443639698637610e-16 2.579956286861249954e-15 1.978150000000000119e+01 -3.009479999999999933e+00 -8.305149999999999366e+00 2.400000000000000000e+01 -1.648046609228434522e-15 1.344079217783266465e-14 2.000000000000000000e+01 1.518509461974758892e-14 3.396691484762011185e-14 6.045115145238301402e+00 -1.874432165739440137e+01 -4.173638043680804088e+01 -2.827983811780425683e+01 2.526671433653537591e+01 -9.223542987339790500e+01 1.421741932530012775e+01 -2.405181864150524618e+01 -2.926907630881194677e+01 -3.021561275883854591e+01 -1.149869673366844225e+01 -8.188234955337463816e+00 -2.818400000000000105e+01 1.072940000000000005e+01 -1.915919999999999845e+01 -6.754087628434015353e-15 -1.011029817774303006e-14 1.000000000000000000e+01 8.793682814476879539e-15 -6.429875195341457995e-15 1.000000000000000000e+01 -4.699499379972097255e-15 -5.573513904443592152e-15 -6.066773794943848761e-15 -1.998179999999999978e+01 8.718970000000000331e-01 -2.396399999999999864e+00 -2.400000000000000000e+01 -4.839448648591579992e-15 -1.046406380348392608e-14 -2.000000000000000000e+01 6.675511375331015529e-16 5.335279410129016129e-15 -4.699499379972097255e-15 -5.573513904443592152e-15 -6.066773794943848761e-15 -2.000000000000000000e+01 -1.025948277129966916e-14 -4.916731671056814294e-15 -2.400000000000000000e+01 -2.787058759831573264e-15 -2.319971176729884297e-15 -2.000000000000000000e+01 1.754546343773614897e-15 -1.034569050471077066e-14 -4.699499379972097255e-15 -5.573513904443592152e-15 -6.066773794943848761e-15 -1.997479999999999833e+01 -1.025649999999999951e+00 2.819380000000000219e+00 -2.400000000000000000e+01 1.973372151417438255e-15 -1.052773420840242376e-14 -2.000000000000000000e+01 -2.735754357571581965e-15 6.531507918750882820e-15 -4.699499379972097255e-15 -5.573513904443592152e-15 -6.066773794943848761e-15 -1.978150000000000119e+01 -3.009479999999999933e+00 8.305149999999999366e+00 -2.400000000000000000e+01 -5.318550753808877103e-17 1.192394164749645993e-15 -2.000000000000000000e+01 5.897118717374481679e-15 -8.675120256199254350e-15
